<mxfile host="app.diagrams.net" modified="2024-03-22T04:51:07.297Z" agent="Mozilla/5.0 (Windows NT 10.0; Win64; x64) AppleWebKit/537.36 (KHTML, like Gecko) Chrome/123.0.0.0 Safari/537.36" etag="771X1y2KYwd40EXYS3Wv" version="24.0.7" type="device">
  <diagram name="Page-1" id="WWtEuOtEbLHsmuKA-1LV">
    <mxGraphModel dx="818" dy="508" grid="1" gridSize="10" guides="1" tooltips="1" connect="1" arrows="1" fold="1" page="1" pageScale="1" pageWidth="850" pageHeight="1100" math="0" shadow="0">
      <root>
        <mxCell id="0" />
        <mxCell id="1" parent="0" />
        <mxCell id="729YpR4FQRpZQfVQYDvw-10" style="edgeStyle=orthogonalEdgeStyle;rounded=1;orthogonalLoop=1;jettySize=auto;html=1;entryX=0.5;entryY=1;entryDx=0;entryDy=0;fillColor=#fff2cc;strokeColor=#d6b656;curved=0;startArrow=classic;startFill=1;strokeWidth=2;" edge="1" parent="1" source="729YpR4FQRpZQfVQYDvw-1" target="729YpR4FQRpZQfVQYDvw-2">
          <mxGeometry relative="1" as="geometry" />
        </mxCell>
        <mxCell id="729YpR4FQRpZQfVQYDvw-1" value="MCU" style="rounded=0;whiteSpace=wrap;html=1;fillColor=#dae8fc;strokeColor=#6c8ebf;sketch=1;curveFitting=1;jiggle=2;" vertex="1" parent="1">
          <mxGeometry x="360" y="200" width="120" height="60" as="geometry" />
        </mxCell>
        <mxCell id="729YpR4FQRpZQfVQYDvw-2" value="Chip Antenna" style="rounded=0;whiteSpace=wrap;html=1;fillColor=#f8cecc;strokeColor=#b85450;sketch=1;curveFitting=1;jiggle=2;" vertex="1" parent="1">
          <mxGeometry x="360" y="100" width="120" height="60" as="geometry" />
        </mxCell>
        <mxCell id="729YpR4FQRpZQfVQYDvw-14" style="edgeStyle=orthogonalEdgeStyle;rounded=1;orthogonalLoop=1;jettySize=auto;html=1;exitX=0.5;exitY=0;exitDx=0;exitDy=0;entryX=0.5;entryY=1;entryDx=0;entryDy=0;strokeWidth=2;curved=0;fillColor=#fff2cc;strokeColor=#d6b656;" edge="1" parent="1" source="729YpR4FQRpZQfVQYDvw-3" target="729YpR4FQRpZQfVQYDvw-5">
          <mxGeometry relative="1" as="geometry" />
        </mxCell>
        <mxCell id="729YpR4FQRpZQfVQYDvw-3" value="Battery" style="rounded=0;whiteSpace=wrap;html=1;fillColor=#ffe6cc;strokeColor=#d79b00;sketch=1;curveFitting=1;jiggle=2;" vertex="1" parent="1">
          <mxGeometry x="180" y="170" width="120" height="60" as="geometry" />
        </mxCell>
        <mxCell id="729YpR4FQRpZQfVQYDvw-13" style="edgeStyle=orthogonalEdgeStyle;rounded=1;orthogonalLoop=1;jettySize=auto;html=1;exitX=0.5;exitY=0;exitDx=0;exitDy=0;entryX=0.5;entryY=1;entryDx=0;entryDy=0;curved=0;strokeWidth=2;fillColor=#fff2cc;strokeColor=#d6b656;" edge="1" parent="1" source="729YpR4FQRpZQfVQYDvw-4" target="729YpR4FQRpZQfVQYDvw-3">
          <mxGeometry relative="1" as="geometry" />
        </mxCell>
        <mxCell id="729YpR4FQRpZQfVQYDvw-18" style="edgeStyle=orthogonalEdgeStyle;rounded=1;orthogonalLoop=1;jettySize=auto;html=1;exitX=1;exitY=0.5;exitDx=0;exitDy=0;entryX=0;entryY=0.5;entryDx=0;entryDy=0;curved=0;strokeWidth=2;fillColor=#fff2cc;strokeColor=#d6b656;startArrow=classic;startFill=1;" edge="1" parent="1" source="729YpR4FQRpZQfVQYDvw-4" target="729YpR4FQRpZQfVQYDvw-1">
          <mxGeometry relative="1" as="geometry" />
        </mxCell>
        <mxCell id="729YpR4FQRpZQfVQYDvw-4" value="PMIC" style="rounded=0;whiteSpace=wrap;html=1;fillColor=#ffe6cc;strokeColor=#d79b00;sketch=1;curveFitting=1;jiggle=2;" vertex="1" parent="1">
          <mxGeometry x="180" y="250" width="120" height="60" as="geometry" />
        </mxCell>
        <mxCell id="729YpR4FQRpZQfVQYDvw-5" value="Battery&lt;div&gt;Charger&lt;/div&gt;" style="rounded=0;whiteSpace=wrap;html=1;fillColor=#ffe6cc;strokeColor=#d79b00;sketch=1;curveFitting=1;jiggle=2;" vertex="1" parent="1">
          <mxGeometry x="180" y="90" width="120" height="60" as="geometry" />
        </mxCell>
        <mxCell id="729YpR4FQRpZQfVQYDvw-15" style="edgeStyle=orthogonalEdgeStyle;rounded=1;orthogonalLoop=1;jettySize=auto;html=1;entryX=1;entryY=0.5;entryDx=0;entryDy=0;strokeColor=none;curved=0;" edge="1" parent="1" source="729YpR4FQRpZQfVQYDvw-6" target="729YpR4FQRpZQfVQYDvw-1">
          <mxGeometry relative="1" as="geometry" />
        </mxCell>
        <mxCell id="729YpR4FQRpZQfVQYDvw-17" style="edgeStyle=orthogonalEdgeStyle;rounded=1;orthogonalLoop=1;jettySize=auto;html=1;entryX=1;entryY=0.5;entryDx=0;entryDy=0;curved=0;strokeWidth=2;fillColor=#fff2cc;strokeColor=#d6b656;startArrow=classic;startFill=1;" edge="1" parent="1" source="729YpR4FQRpZQfVQYDvw-6" target="729YpR4FQRpZQfVQYDvw-1">
          <mxGeometry relative="1" as="geometry" />
        </mxCell>
        <mxCell id="729YpR4FQRpZQfVQYDvw-6" value="Bio&lt;div&gt;Sensor&lt;/div&gt;" style="rounded=0;whiteSpace=wrap;html=1;fillColor=#d5e8d4;strokeColor=#82b366;sketch=1;curveFitting=1;jiggle=2;" vertex="1" parent="1">
          <mxGeometry x="520" y="150" width="130" height="60" as="geometry" />
        </mxCell>
        <mxCell id="729YpR4FQRpZQfVQYDvw-16" style="edgeStyle=orthogonalEdgeStyle;rounded=1;orthogonalLoop=1;jettySize=auto;html=1;entryX=0.75;entryY=1;entryDx=0;entryDy=0;strokeWidth=2;fillColor=#fff2cc;strokeColor=#d6b656;curved=0;startArrow=classic;startFill=1;" edge="1" parent="1" source="729YpR4FQRpZQfVQYDvw-7" target="729YpR4FQRpZQfVQYDvw-1">
          <mxGeometry relative="1" as="geometry" />
        </mxCell>
        <mxCell id="729YpR4FQRpZQfVQYDvw-7" value="Rotary&lt;div&gt;Encoder&lt;/div&gt;" style="rounded=0;whiteSpace=wrap;html=1;fillColor=#f5f5f5;fontColor=#333333;strokeColor=#666666;sketch=1;curveFitting=1;jiggle=2;" vertex="1" parent="1">
          <mxGeometry x="540" y="260" width="120" height="60" as="geometry" />
        </mxCell>
        <mxCell id="729YpR4FQRpZQfVQYDvw-11" style="edgeStyle=orthogonalEdgeStyle;rounded=1;orthogonalLoop=1;jettySize=auto;html=1;entryX=0.5;entryY=1;entryDx=0;entryDy=0;fillColor=#fff2cc;strokeColor=#d6b656;strokeWidth=2;curved=0;" edge="1" parent="1" source="729YpR4FQRpZQfVQYDvw-8" target="729YpR4FQRpZQfVQYDvw-1">
          <mxGeometry relative="1" as="geometry" />
        </mxCell>
        <mxCell id="729YpR4FQRpZQfVQYDvw-8" value="Proximity&lt;div&gt;Sensor&lt;/div&gt;" style="rounded=0;whiteSpace=wrap;html=1;fillColor=#e1d5e7;strokeColor=#9673a6;sketch=1;curveFitting=1;jiggle=2;" vertex="1" parent="1">
          <mxGeometry x="330" y="330" width="120" height="60" as="geometry" />
        </mxCell>
      </root>
    </mxGraphModel>
  </diagram>
</mxfile>
